<svg xmlns="http://www.w3.org/2000/svg" version="1.1" xmlns:xlink="http://www.w3.org/1999/xlink" xmlns:svgjs="http://svgjs.dev/svgjs" width="1440" height="560" preserveAspectRatio="none" viewBox="0 0 1440 560"><g mask="url(&quot;#SvgjsMask1000&quot;)" fill="none"><rect width="1440" height="560" x="0" y="0" fill="rgba(0, 1, 2, 1)"></rect><path d="M-82.36 341.98L-82.36 341.98" stroke="rgba(84, 13, 205, 1)" stroke-width="1.5"></path><path d="M-82.36 341.98L108.39 406.01" stroke="rgba(84, 13, 205, 1)" stroke-width="1.5"></path><path d="M-82.36 341.98L-104.12 556.56" stroke="rgba(84, 13, 205, 1)" stroke-width="1.5"></path><path d="M-82.36 341.98L56.5 542.75" stroke="rgba(84, 13, 205, 1)" stroke-width="1.5"></path><path d="M-82.36 341.98L-46.1 645.75" stroke="rgba(84, 13, 205, 1)" stroke-width="1.5"></path><path d="M-104.12 556.56L-104.12 556.56" stroke="rgba(84, 13, 205, 1)" stroke-width="1.5"></path><path d="M-104.12 556.56L-46.1 645.75" stroke="rgba(84, 13, 205, 1)" stroke-width="1.5"></path><path d="M-104.12 556.56L56.5 542.75" stroke="rgba(84, 13, 205, 1)" stroke-width="1.5"></path><path d="M-46.1 645.75L-46.1 645.75" stroke="rgba(84, 13, 205, 1)" stroke-width="1.5"></path><path d="M-46.1 645.75L56.92 691.91" stroke="rgba(84, 13, 205, 1)" stroke-width="1.5"></path><path d="M108.39 406.01L108.39 406.01" stroke="rgba(84, 13, 205, 1)" stroke-width="1.5"></path><path d="M108.39 406.01L56.5 542.75" stroke="rgba(84, 13, 205, 1)" stroke-width="1.5"></path><path d="M108.39 406.01L234.13 537.07" stroke="rgba(84, 13, 205, 1)" stroke-width="1.5"></path><path d="M56.5 542.75L56.5 542.75" stroke="rgba(84, 13, 205, 1)" stroke-width="1.5"></path><path d="M56.5 542.75L-46.1 645.75" stroke="rgba(84, 13, 205, 1)" stroke-width="1.5"></path><path d="M56.92 691.91L56.92 691.91" stroke="rgba(84, 13, 205, 1)" stroke-width="1.5"></path><path d="M56.92 691.91L56.5 542.75" stroke="rgba(84, 13, 205, 1)" stroke-width="1.5"></path><path d="M234.13 537.07L234.13 537.07" stroke="rgba(84, 13, 205, 1)" stroke-width="1.5"></path><path d="M234.13 537.07L206.44 654.44" stroke="rgba(84, 13, 205, 1)" stroke-width="1.5"></path><path d="M234.13 537.07L366.05 653.72" stroke="rgba(84, 13, 205, 1)" stroke-width="1.5"></path><path d="M206.44 654.44L206.44 654.44" stroke="rgba(84, 13, 205, 1)" stroke-width="1.5"></path><path d="M206.44 654.44L56.92 691.91" stroke="rgba(84, 13, 205, 1)" stroke-width="1.5"></path><path d="M206.44 654.44L366.05 653.72" stroke="rgba(84, 13, 205, 1)" stroke-width="1.5"></path><path d="M206.44 654.44L56.5 542.75" stroke="rgba(84, 13, 205, 1)" stroke-width="1.5"></path><path d="M366.05 653.72L366.05 653.72" stroke="rgba(84, 13, 205, 1)" stroke-width="1.5"></path><path d="M366.05 653.72L550.16 675.82" stroke="rgba(84, 13, 205, 1)" stroke-width="1.5"></path><path d="M537.91 400.9L537.91 400.9" stroke="rgba(84, 13, 205, 1)" stroke-width="1.5"></path><path d="M537.91 400.9L556.68 548.76" stroke="rgba(84, 13, 205, 1)" stroke-width="1.5"></path><path d="M537.91 400.9L683.56 367.61" stroke="rgba(84, 13, 205, 1)" stroke-width="1.5"></path><path d="M537.91 400.9L647.32 510.53" stroke="rgba(84, 13, 205, 1)" stroke-width="1.5"></path><path d="M556.68 548.76L556.68 548.76" stroke="rgba(84, 13, 205, 1)" stroke-width="1.5"></path><path d="M556.68 548.76L647.32 510.53" stroke="rgba(84, 13, 205, 1)" stroke-width="1.5"></path><path d="M556.68 548.76L550.16 675.82" stroke="rgba(84, 13, 205, 1)" stroke-width="1.5"></path><path d="M556.68 548.76L708.12 673.42" stroke="rgba(84, 13, 205, 1)" stroke-width="1.5"></path><path d="M550.16 675.82L550.16 675.82" stroke="rgba(84, 13, 205, 1)" stroke-width="1.5"></path><path d="M550.16 675.82L708.12 673.42" stroke="rgba(84, 13, 205, 1)" stroke-width="1.5"></path><path d="M550.16 675.82L647.32 510.53" stroke="rgba(84, 13, 205, 1)" stroke-width="1.5"></path><path d="M550.16 675.82L537.91 400.9" stroke="rgba(84, 13, 205, 1)" stroke-width="1.5"></path><path d="M668.12 215.42L668.12 215.42" stroke="rgba(84, 13, 205, 1)" stroke-width="1.5"></path><path d="M668.12 215.42L683.56 367.61" stroke="rgba(84, 13, 205, 1)" stroke-width="1.5"></path><path d="M668.12 215.42L831.37 249.28" stroke="rgba(84, 13, 205, 1)" stroke-width="1.5"></path><path d="M668.12 215.42L790.52 388.11" stroke="rgba(84, 13, 205, 1)" stroke-width="1.5"></path><path d="M683.56 367.61L683.56 367.61" stroke="rgba(84, 13, 205, 1)" stroke-width="1.5"></path><path d="M683.56 367.61L790.52 388.11" stroke="rgba(84, 13, 205, 1)" stroke-width="1.5"></path><path d="M683.56 367.61L647.32 510.53" stroke="rgba(84, 13, 205, 1)" stroke-width="1.5"></path><path d="M647.32 510.53L647.32 510.53" stroke="rgba(84, 13, 205, 1)" stroke-width="1.5"></path><path d="M708.12 673.42L708.12 673.42" stroke="rgba(84, 13, 205, 1)" stroke-width="1.5"></path><path d="M708.12 673.42L845.9 664.74" stroke="rgba(84, 13, 205, 1)" stroke-width="1.5"></path><path d="M708.12 673.42L647.32 510.53" stroke="rgba(84, 13, 205, 1)" stroke-width="1.5"></path><path d="M831.37 249.28L831.37 249.28" stroke="rgba(84, 13, 205, 1)" stroke-width="1.5"></path><path d="M831.37 249.28L790.52 388.11" stroke="rgba(84, 13, 205, 1)" stroke-width="1.5"></path><path d="M831.37 249.28L979.97 231.35" stroke="rgba(84, 13, 205, 1)" stroke-width="1.5"></path><path d="M790.52 388.11L790.52 388.11" stroke="rgba(84, 13, 205, 1)" stroke-width="1.5"></path><path d="M790.52 388.11L815.11 510.41" stroke="rgba(84, 13, 205, 1)" stroke-width="1.5"></path><path d="M815.11 510.41L815.11 510.41" stroke="rgba(84, 13, 205, 1)" stroke-width="1.5"></path><path d="M815.11 510.41L845.9 664.74" stroke="rgba(84, 13, 205, 1)" stroke-width="1.5"></path><path d="M815.11 510.41L647.32 510.53" stroke="rgba(84, 13, 205, 1)" stroke-width="1.5"></path><path d="M815.11 510.41L998.43 561.89" stroke="rgba(84, 13, 205, 1)" stroke-width="1.5"></path><path d="M815.11 510.41L683.56 367.61" stroke="rgba(84, 13, 205, 1)" stroke-width="1.5"></path><path d="M845.9 664.74L845.9 664.74" stroke="rgba(84, 13, 205, 1)" stroke-width="1.5"></path><path d="M845.9 664.74L1006.58 649.05" stroke="rgba(84, 13, 205, 1)" stroke-width="1.5"></path><path d="M845.9 664.74L998.43 561.89" stroke="rgba(84, 13, 205, 1)" stroke-width="1.5"></path><path d="M845.9 664.74L1089.82 638.5" stroke="rgba(84, 13, 205, 1)" stroke-width="1.5"></path><path d="M953.16 -45.32L953.16 -45.32" stroke="rgba(84, 13, 205, 1)" stroke-width="1.5"></path><path d="M953.16 -45.32L940.91 74.02" stroke="rgba(84, 13, 205, 1)" stroke-width="1.5"></path><path d="M953.16 -45.32L1125.23 -88.72" stroke="rgba(84, 13, 205, 1)" stroke-width="1.5"></path><path d="M953.16 -45.32L1144.99 43.64" stroke="rgba(84, 13, 205, 1)" stroke-width="1.5"></path><path d="M953.16 -45.32L979.97 231.35" stroke="rgba(84, 13, 205, 1)" stroke-width="1.5"></path><path d="M953.16 -45.32L1238.81 -64.08" stroke="rgba(84, 13, 205, 1)" stroke-width="1.5"></path><path d="M953.16 -45.32L1241.63 70.58" stroke="rgba(84, 13, 205, 1)" stroke-width="1.5"></path><path d="M940.91 74.02L940.91 74.02" stroke="rgba(84, 13, 205, 1)" stroke-width="1.5"></path><path d="M940.91 74.02L979.97 231.35" stroke="rgba(84, 13, 205, 1)" stroke-width="1.5"></path><path d="M940.91 74.02L1144.99 43.64" stroke="rgba(84, 13, 205, 1)" stroke-width="1.5"></path><path d="M940.91 74.02L831.37 249.28" stroke="rgba(84, 13, 205, 1)" stroke-width="1.5"></path><path d="M940.91 74.02L1125.23 -88.72" stroke="rgba(84, 13, 205, 1)" stroke-width="1.5"></path><path d="M940.91 74.02L1241.63 70.58" stroke="rgba(84, 13, 205, 1)" stroke-width="1.5"></path><path d="M979.97 231.35L979.97 231.35" stroke="rgba(84, 13, 205, 1)" stroke-width="1.5"></path><path d="M979.97 231.35L1143.91 363.84" stroke="rgba(84, 13, 205, 1)" stroke-width="1.5"></path><path d="M979.97 231.35L790.52 388.11" stroke="rgba(84, 13, 205, 1)" stroke-width="1.5"></path><path d="M979.97 231.35L1144.99 43.64" stroke="rgba(84, 13, 205, 1)" stroke-width="1.5"></path><path d="M979.97 231.35L1246.91 253" stroke="rgba(84, 13, 205, 1)" stroke-width="1.5"></path><path d="M998.43 561.89L998.43 561.89" stroke="rgba(84, 13, 205, 1)" stroke-width="1.5"></path><path d="M998.43 561.89L1006.58 649.05" stroke="rgba(84, 13, 205, 1)" stroke-width="1.5"></path><path d="M998.43 561.89L1095.4 554.46" stroke="rgba(84, 13, 205, 1)" stroke-width="1.5"></path><path d="M998.43 561.89L1089.82 638.5" stroke="rgba(84, 13, 205, 1)" stroke-width="1.5"></path><path d="M1006.58 649.05L1006.58 649.05" stroke="rgba(84, 13, 205, 1)" stroke-width="1.5"></path><path d="M1006.58 649.05L1089.82 638.5" stroke="rgba(84, 13, 205, 1)" stroke-width="1.5"></path><path d="M1006.58 649.05L1095.4 554.46" stroke="rgba(84, 13, 205, 1)" stroke-width="1.5"></path><path d="M1125.23 -88.72L1125.23 -88.72" stroke="rgba(84, 13, 205, 1)" stroke-width="1.5"></path><path d="M1125.23 -88.72L1238.81 -64.08" stroke="rgba(84, 13, 205, 1)" stroke-width="1.5"></path><path d="M1144.99 43.64L1144.99 43.64" stroke="rgba(84, 13, 205, 1)" stroke-width="1.5"></path><path d="M1144.99 43.64L1241.63 70.58" stroke="rgba(84, 13, 205, 1)" stroke-width="1.5"></path><path d="M1144.99 43.64L1125.23 -88.72" stroke="rgba(84, 13, 205, 1)" stroke-width="1.5"></path><path d="M1144.99 43.64L1238.81 -64.08" stroke="rgba(84, 13, 205, 1)" stroke-width="1.5"></path><path d="M1144.99 43.64L1246.91 253" stroke="rgba(84, 13, 205, 1)" stroke-width="1.5"></path><path d="M1143.91 363.84L1143.91 363.84" stroke="rgba(84, 13, 205, 1)" stroke-width="1.5"></path><path d="M1143.91 363.84L1246.91 253" stroke="rgba(84, 13, 205, 1)" stroke-width="1.5"></path><path d="M1143.91 363.84L1306.87 358.19" stroke="rgba(84, 13, 205, 1)" stroke-width="1.5"></path><path d="M1143.91 363.84L1095.4 554.46" stroke="rgba(84, 13, 205, 1)" stroke-width="1.5"></path><path d="M1143.91 363.84L1274.14 540.12" stroke="rgba(84, 13, 205, 1)" stroke-width="1.5"></path><path d="M1095.4 554.46L1095.4 554.46" stroke="rgba(84, 13, 205, 1)" stroke-width="1.5"></path><path d="M1095.4 554.46L1089.82 638.5" stroke="rgba(84, 13, 205, 1)" stroke-width="1.5"></path><path d="M1095.4 554.46L1274.14 540.12" stroke="rgba(84, 13, 205, 1)" stroke-width="1.5"></path><path d="M1089.82 638.5L1089.82 638.5" stroke="rgba(84, 13, 205, 1)" stroke-width="1.5"></path><path d="M1238.81 -64.08L1238.81 -64.08" stroke="rgba(84, 13, 205, 1)" stroke-width="1.5"></path><path d="M1238.81 -64.08L1241.63 70.58" stroke="rgba(84, 13, 205, 1)" stroke-width="1.5"></path><path d="M1241.63 70.58L1241.63 70.58" stroke="rgba(84, 13, 205, 1)" stroke-width="1.5"></path><path d="M1241.63 70.58L1246.91 253" stroke="rgba(84, 13, 205, 1)" stroke-width="1.5"></path><path d="M1241.63 70.58L1432.45 51.69" stroke="rgba(84, 13, 205, 1)" stroke-width="1.5"></path><path d="M1241.63 70.58L1125.23 -88.72" stroke="rgba(84, 13, 205, 1)" stroke-width="1.5"></path><path d="M1246.91 253L1246.91 253" stroke="rgba(84, 13, 205, 1)" stroke-width="1.5"></path><path d="M1246.91 253L1306.87 358.19" stroke="rgba(84, 13, 205, 1)" stroke-width="1.5"></path><path d="M1246.91 253L1393.29 259.13" stroke="rgba(84, 13, 205, 1)" stroke-width="1.5"></path><path d="M1246.91 253L1413.75 337.65" stroke="rgba(84, 13, 205, 1)" stroke-width="1.5"></path><path d="M1306.87 358.19L1306.87 358.19" stroke="rgba(84, 13, 205, 1)" stroke-width="1.5"></path><path d="M1306.87 358.19L1413.75 337.65" stroke="rgba(84, 13, 205, 1)" stroke-width="1.5"></path><path d="M1306.87 358.19L1393.29 259.13" stroke="rgba(84, 13, 205, 1)" stroke-width="1.5"></path><path d="M1306.87 358.19L1417.51 494.89" stroke="rgba(84, 13, 205, 1)" stroke-width="1.5"></path><path d="M1274.14 540.12L1274.14 540.12" stroke="rgba(84, 13, 205, 1)" stroke-width="1.5"></path><path d="M1274.14 540.12L1240.19 663.88" stroke="rgba(84, 13, 205, 1)" stroke-width="1.5"></path><path d="M1274.14 540.12L1417.51 494.89" stroke="rgba(84, 13, 205, 1)" stroke-width="1.5"></path><path d="M1240.19 663.88L1240.19 663.88" stroke="rgba(84, 13, 205, 1)" stroke-width="1.5"></path><path d="M1240.19 663.88L1089.82 638.5" stroke="rgba(84, 13, 205, 1)" stroke-width="1.5"></path><path d="M1240.19 663.88L1095.4 554.46" stroke="rgba(84, 13, 205, 1)" stroke-width="1.5"></path><path d="M1240.19 663.88L1454.13 651.85" stroke="rgba(84, 13, 205, 1)" stroke-width="1.5"></path><path d="M1240.19 663.88L1006.58 649.05" stroke="rgba(84, 13, 205, 1)" stroke-width="1.5"></path><path d="M1444.93 -108.67L1444.93 -108.67" stroke="rgba(84, 13, 205, 1)" stroke-width="1.5"></path><path d="M1444.93 -108.67L1432.45 51.69" stroke="rgba(84, 13, 205, 1)" stroke-width="1.5"></path><path d="M1444.93 -108.67L1605.96 -61.75" stroke="rgba(84, 13, 205, 1)" stroke-width="1.5"></path><path d="M1444.93 -108.67L1238.81 -64.08" stroke="rgba(84, 13, 205, 1)" stroke-width="1.5"></path><path d="M1444.93 -108.67L1594.92 45.02" stroke="rgba(84, 13, 205, 1)" stroke-width="1.5"></path><path d="M1444.93 -108.67L1241.63 70.58" stroke="rgba(84, 13, 205, 1)" stroke-width="1.5"></path><path d="M1432.45 51.69L1432.45 51.69" stroke="rgba(84, 13, 205, 1)" stroke-width="1.5"></path><path d="M1432.45 51.69L1594.92 45.02" stroke="rgba(84, 13, 205, 1)" stroke-width="1.5"></path><path d="M1393.29 259.13L1393.29 259.13" stroke="rgba(84, 13, 205, 1)" stroke-width="1.5"></path><path d="M1393.29 259.13L1413.75 337.65" stroke="rgba(84, 13, 205, 1)" stroke-width="1.5"></path><path d="M1393.29 259.13L1561.2 244.78" stroke="rgba(84, 13, 205, 1)" stroke-width="1.5"></path><path d="M1413.75 337.65L1413.75 337.65" stroke="rgba(84, 13, 205, 1)" stroke-width="1.5"></path><path d="M1413.75 337.65L1417.51 494.89" stroke="rgba(84, 13, 205, 1)" stroke-width="1.5"></path><path d="M1413.75 337.65L1561.2 244.78" stroke="rgba(84, 13, 205, 1)" stroke-width="1.5"></path><path d="M1417.51 494.89L1417.51 494.89" stroke="rgba(84, 13, 205, 1)" stroke-width="1.5"></path><path d="M1417.51 494.89L1544.65 532.47" stroke="rgba(84, 13, 205, 1)" stroke-width="1.5"></path><path d="M1454.13 651.85L1454.13 651.85" stroke="rgba(84, 13, 205, 1)" stroke-width="1.5"></path><path d="M1454.13 651.85L1544.65 532.47" stroke="rgba(84, 13, 205, 1)" stroke-width="1.5"></path><path d="M1454.13 651.85L1417.51 494.89" stroke="rgba(84, 13, 205, 1)" stroke-width="1.5"></path><path d="M1454.13 651.85L1274.14 540.12" stroke="rgba(84, 13, 205, 1)" stroke-width="1.5"></path><path d="M1605.96 -61.75L1605.96 -61.75" stroke="rgba(84, 13, 205, 1)" stroke-width="1.5"></path><path d="M1605.96 -61.75L1594.92 45.02" stroke="rgba(84, 13, 205, 1)" stroke-width="1.5"></path><path d="M1605.96 -61.75L1432.45 51.69" stroke="rgba(84, 13, 205, 1)" stroke-width="1.5"></path><path d="M1605.96 -61.75L1561.2 244.78" stroke="rgba(84, 13, 205, 1)" stroke-width="1.5"></path><path d="M1605.96 -61.75L1238.81 -64.08" stroke="rgba(84, 13, 205, 1)" stroke-width="1.5"></path><path d="M1594.92 45.02L1594.92 45.02" stroke="rgba(84, 13, 205, 1)" stroke-width="1.5"></path><path d="M1561.2 244.78L1561.2 244.78" stroke="rgba(84, 13, 205, 1)" stroke-width="1.5"></path><path d="M1544.65 532.47L1544.65 532.47" stroke="rgba(84, 13, 205, 1)" stroke-width="1.5"></path><path d="M1544.65 532.47L1413.75 337.65" stroke="rgba(84, 13, 205, 1)" stroke-width="1.5"></path><circle r="5" cx="-82.36" cy="341.98" fill="rgba(84, 13, 205, 1)"></circle><circle r="5" cx="-104.12" cy="556.56" fill="rgba(84, 13, 205, 1)"></circle><circle r="5" cx="-46.1" cy="645.75" fill="rgba(84, 13, 205, 1)"></circle><circle r="5" cx="108.39" cy="406.01" fill="rgba(84, 13, 205, 1)"></circle><circle r="5" cx="56.5" cy="542.75" fill="rgba(84, 13, 205, 1)"></circle><circle r="5" cx="56.92" cy="691.91" fill="rgba(84, 13, 205, 1)"></circle><circle r="5" cx="234.13" cy="537.07" fill="rgba(84, 13, 205, 1)"></circle><circle r="5" cx="206.44" cy="654.44" fill="rgba(84, 13, 205, 1)"></circle><circle r="5" cx="366.05" cy="653.72" fill="rgba(84, 13, 205, 1)"></circle><circle r="5" cx="537.91" cy="400.9" fill="rgba(84, 13, 205, 1)"></circle><circle r="5" cx="556.68" cy="548.76" fill="rgba(84, 13, 205, 1)"></circle><circle r="5" cx="550.16" cy="675.82" fill="rgba(84, 13, 205, 1)"></circle><circle r="5" cx="668.12" cy="215.42" fill="rgba(84, 13, 205, 1)"></circle><circle r="5" cx="683.56" cy="367.61" fill="rgba(84, 13, 205, 1)"></circle><circle r="5" cx="647.32" cy="510.53" fill="rgba(84, 13, 205, 1)"></circle><circle r="5" cx="708.12" cy="673.42" fill="rgba(84, 13, 205, 1)"></circle><circle r="5" cx="831.37" cy="249.28" fill="rgba(84, 13, 205, 1)"></circle><circle r="5" cx="790.52" cy="388.11" fill="rgba(84, 13, 205, 1)"></circle><circle r="5" cx="815.11" cy="510.41" fill="rgba(84, 13, 205, 1)"></circle><circle r="5" cx="845.9" cy="664.74" fill="rgba(84, 13, 205, 1)"></circle><circle r="5" cx="953.16" cy="-45.32" fill="rgba(84, 13, 205, 1)"></circle><circle r="5" cx="940.91" cy="74.02" fill="rgba(84, 13, 205, 1)"></circle><circle r="5" cx="979.97" cy="231.35" fill="rgba(84, 13, 205, 1)"></circle><circle r="5" cx="998.43" cy="561.89" fill="rgba(84, 13, 205, 1)"></circle><circle r="5" cx="1006.58" cy="649.05" fill="rgba(84, 13, 205, 1)"></circle><circle r="5" cx="1125.23" cy="-88.72" fill="rgba(84, 13, 205, 1)"></circle><circle r="5" cx="1144.99" cy="43.64" fill="rgba(84, 13, 205, 1)"></circle><circle r="5" cx="1143.91" cy="363.84" fill="rgba(84, 13, 205, 1)"></circle><circle r="5" cx="1095.4" cy="554.46" fill="rgba(84, 13, 205, 1)"></circle><circle r="5" cx="1089.82" cy="638.5" fill="rgba(84, 13, 205, 1)"></circle><circle r="5" cx="1238.81" cy="-64.08" fill="rgba(84, 13, 205, 1)"></circle><circle r="5" cx="1241.63" cy="70.58" fill="rgba(84, 13, 205, 1)"></circle><circle r="5" cx="1246.91" cy="253" fill="rgba(84, 13, 205, 1)"></circle><circle r="5" cx="1306.87" cy="358.19" fill="rgba(84, 13, 205, 1)"></circle><circle r="5" cx="1274.14" cy="540.12" fill="rgba(84, 13, 205, 1)"></circle><circle r="5" cx="1240.19" cy="663.88" fill="rgba(84, 13, 205, 1)"></circle><circle r="5" cx="1444.93" cy="-108.67" fill="rgba(84, 13, 205, 1)"></circle><circle r="5" cx="1432.45" cy="51.69" fill="rgba(84, 13, 205, 1)"></circle><circle r="5" cx="1393.29" cy="259.13" fill="rgba(84, 13, 205, 1)"></circle><circle r="5" cx="1413.75" cy="337.65" fill="rgba(84, 13, 205, 1)"></circle><circle r="5" cx="1417.51" cy="494.89" fill="rgba(84, 13, 205, 1)"></circle><circle r="5" cx="1454.13" cy="651.85" fill="rgba(84, 13, 205, 1)"></circle><circle r="5" cx="1605.96" cy="-61.75" fill="rgba(84, 13, 205, 1)"></circle><circle r="5" cx="1594.92" cy="45.02" fill="rgba(84, 13, 205, 1)"></circle><circle r="5" cx="1561.2" cy="244.78" fill="rgba(84, 13, 205, 1)"></circle><circle r="5" cx="1544.65" cy="532.47" fill="rgba(84, 13, 205, 1)"></circle><path d="M-90.39 696.14L-90.39 696.14" stroke="hsl(338, 92.1%, 45.4%)" stroke-width="1.5"></path><path d="M-90.39 696.14L-82.51 545.2" stroke="hsl(338, 92.1%, 45.4%)" stroke-width="1.5"></path><path d="M-90.39 696.14L93.04 646.25" stroke="hsl(338, 92.1%, 45.4%)" stroke-width="1.5"></path><path d="M-90.39 696.14L87.08 510.73" stroke="hsl(338, 92.1%, 45.4%)" stroke-width="1.5"></path><path d="M698.68 359.07L698.68 359.07" stroke="hsl(338, 92.1%, 45.4%)" stroke-width="1.5"></path><path d="M698.68 359.07L815.93 390.43" stroke="hsl(338, 92.1%, 45.4%)" stroke-width="1.5"></path><path d="M698.68 359.07L638.56 508.53" stroke="hsl(338, 92.1%, 45.4%)" stroke-width="1.5"></path><path d="M698.68 359.07L796.1 503.12" stroke="hsl(338, 92.1%, 45.4%)" stroke-width="1.5"></path><path d="M698.68 359.07L511.07 491.61" stroke="hsl(338, 92.1%, 45.4%)" stroke-width="1.5"></path><path d="M698.68 359.07L963.41 382.21" stroke="hsl(338, 92.1%, 45.4%)" stroke-width="1.5"></path><path d="M698.68 359.07L996.45 527.7" stroke="hsl(338, 92.1%, 45.4%)" stroke-width="1.5"></path><path d="M815.93 390.43L815.93 390.43" stroke="hsl(338, 92.1%, 45.4%)" stroke-width="1.5"></path><path d="M815.93 390.43L796.1 503.12" stroke="hsl(338, 92.1%, 45.4%)" stroke-width="1.5"></path><path d="M815.93 390.43L963.41 382.21" stroke="hsl(338, 92.1%, 45.4%)" stroke-width="1.5"></path><path d="M834.53 702.96L834.53 702.96" stroke="hsl(338, 92.1%, 45.4%)" stroke-width="1.5"></path><path d="M834.53 702.96L990.86 690.71" stroke="hsl(338, 92.1%, 45.4%)" stroke-width="1.5"></path><path d="M834.53 702.96L658.75 699.91" stroke="hsl(338, 92.1%, 45.4%)" stroke-width="1.5"></path><path d="M1129.09 490.48L1129.09 490.48" stroke="hsl(338, 92.1%, 45.4%)" stroke-width="1.5"></path><path d="M1129.09 490.48L1093.16 373.02" stroke="hsl(338, 92.1%, 45.4%)" stroke-width="1.5"></path><path d="M1129.09 490.48L996.45 527.7" stroke="hsl(338, 92.1%, 45.4%)" stroke-width="1.5"></path><path d="M1267.82 495.06L1267.82 495.06" stroke="hsl(338, 92.1%, 45.4%)" stroke-width="1.5"></path><path d="M1267.82 495.06L1387.66 530.04" stroke="hsl(338, 92.1%, 45.4%)" stroke-width="1.5"></path><path d="M1267.82 495.06L1241.6 363.81" stroke="hsl(338, 92.1%, 45.4%)" stroke-width="1.5"></path><path d="M1267.82 495.06L1129.09 490.48" stroke="hsl(338, 92.1%, 45.4%)" stroke-width="1.5"></path><path d="M1308.42 665.65L1308.42 665.65" stroke="hsl(338, 92.1%, 45.4%)" stroke-width="1.5"></path><path d="M1308.42 665.65L1387.66 530.04" stroke="hsl(338, 92.1%, 45.4%)" stroke-width="1.5"></path><path d="M1308.42 665.65L1267.82 495.06" stroke="hsl(338, 92.1%, 45.4%)" stroke-width="1.5"></path><path d="M1308.42 665.65L1111.42 662.6" stroke="hsl(338, 92.1%, 45.4%)" stroke-width="1.5"></path><path d="M1308.42 665.65L1129.09 490.48" stroke="hsl(338, 92.1%, 45.4%)" stroke-width="1.5"></path><path d="M1308.42 665.65L1593.39 675.55" stroke="hsl(338, 92.1%, 45.4%)" stroke-width="1.5"></path><path d="M1308.42 665.65L1544.83 495.82" stroke="hsl(338, 92.1%, 45.4%)" stroke-width="1.5"></path><path d="M1586.59 -89.99L1586.59 -89.99" stroke="hsl(338, 92.1%, 45.4%)" stroke-width="1.5"></path><path d="M1586.59 -89.99L1541.6 107.21" stroke="hsl(338, 92.1%, 45.4%)" stroke-width="1.5"></path><path d="M1586.59 -89.99L1450.7 75.36" stroke="hsl(338, 92.1%, 45.4%)" stroke-width="1.5"></path><path d="M1586.59 -89.99L1312.47 -54.26" stroke="hsl(338, 92.1%, 45.4%)" stroke-width="1.5"></path><path d="M1593.39 675.55L1593.39 675.55" stroke="hsl(338, 92.1%, 45.4%)" stroke-width="1.5"></path><path d="M1593.39 675.55L1544.83 495.82" stroke="hsl(338, 92.1%, 45.4%)" stroke-width="1.5"></path><path d="M1593.39 675.55L1387.66 530.04" stroke="hsl(338, 92.1%, 45.4%)" stroke-width="1.5"></path><path d="M1593.39 675.55L1579.41 352.23" stroke="hsl(338, 92.1%, 45.4%)" stroke-width="1.5"></path><path d="M-82.51 545.2L-82.51 545.2" stroke="hsl(338, 92.1%, 45.4%)" stroke-width="1.5"></path><path d="M-82.51 545.2L87.08 510.73" stroke="hsl(338, 92.1%, 45.4%)" stroke-width="1.5"></path><path d="M-82.51 545.2L93.04 646.25" stroke="hsl(338, 92.1%, 45.4%)" stroke-width="1.5"></path><path d="M87.08 510.73L87.08 510.73" stroke="hsl(338, 92.1%, 45.4%)" stroke-width="1.5"></path><path d="M87.08 510.73L93.04 646.25" stroke="hsl(338, 92.1%, 45.4%)" stroke-width="1.5"></path><path d="M87.08 510.73L224.06 531.14" stroke="hsl(338, 92.1%, 45.4%)" stroke-width="1.5"></path><path d="M93.04 646.25L93.04 646.25" stroke="hsl(338, 92.1%, 45.4%)" stroke-width="1.5"></path><path d="M93.04 646.25L206.4 704.58" stroke="hsl(338, 92.1%, 45.4%)" stroke-width="1.5"></path><path d="M93.04 646.25L224.06 531.14" stroke="hsl(338, 92.1%, 45.4%)" stroke-width="1.5"></path><path d="M224.06 531.14L224.06 531.14" stroke="hsl(338, 92.1%, 45.4%)" stroke-width="1.5"></path><path d="M224.06 531.14L206.4 704.58" stroke="hsl(338, 92.1%, 45.4%)" stroke-width="1.5"></path><path d="M206.4 704.58L206.4 704.58" stroke="hsl(338, 92.1%, 45.4%)" stroke-width="1.5"></path><path d="M206.4 704.58L87.08 510.73" stroke="hsl(338, 92.1%, 45.4%)" stroke-width="1.5"></path><path d="M206.4 704.58L497.57 691.56" stroke="hsl(338, 92.1%, 45.4%)" stroke-width="1.5"></path><path d="M511.07 491.61L511.07 491.61" stroke="hsl(338, 92.1%, 45.4%)" stroke-width="1.5"></path><path d="M511.07 491.61L638.56 508.53" stroke="hsl(338, 92.1%, 45.4%)" stroke-width="1.5"></path><path d="M511.07 491.61L497.57 691.56" stroke="hsl(338, 92.1%, 45.4%)" stroke-width="1.5"></path><path d="M497.57 691.56L497.57 691.56" stroke="hsl(338, 92.1%, 45.4%)" stroke-width="1.5"></path><path d="M497.57 691.56L658.75 699.91" stroke="hsl(338, 92.1%, 45.4%)" stroke-width="1.5"></path><path d="M638.56 508.53L638.56 508.53" stroke="hsl(338, 92.1%, 45.4%)" stroke-width="1.5"></path><path d="M638.56 508.53L796.1 503.12" stroke="hsl(338, 92.1%, 45.4%)" stroke-width="1.5"></path><path d="M638.56 508.53L658.75 699.91" stroke="hsl(338, 92.1%, 45.4%)" stroke-width="1.5"></path><path d="M658.75 699.91L658.75 699.91" stroke="hsl(338, 92.1%, 45.4%)" stroke-width="1.5"></path><path d="M796.1 503.12L796.1 503.12" stroke="hsl(338, 92.1%, 45.4%)" stroke-width="1.5"></path><path d="M963.41 382.21L963.41 382.21" stroke="hsl(338, 92.1%, 45.4%)" stroke-width="1.5"></path><path d="M963.41 382.21L1093.16 373.02" stroke="hsl(338, 92.1%, 45.4%)" stroke-width="1.5"></path><path d="M963.41 382.21L996.45 527.7" stroke="hsl(338, 92.1%, 45.4%)" stroke-width="1.5"></path><path d="M996.45 527.7L996.45 527.7" stroke="hsl(338, 92.1%, 45.4%)" stroke-width="1.5"></path><path d="M990.86 690.71L990.86 690.71" stroke="hsl(338, 92.1%, 45.4%)" stroke-width="1.5"></path><path d="M990.86 690.71L1111.42 662.6" stroke="hsl(338, 92.1%, 45.4%)" stroke-width="1.5"></path><path d="M1160.84 -48.72L1160.84 -48.72" stroke="hsl(338, 92.1%, 45.4%)" stroke-width="1.5"></path><path d="M1160.84 -48.72L1273.34 50.62" stroke="hsl(338, 92.1%, 45.4%)" stroke-width="1.5"></path><path d="M1160.84 -48.72L1312.47 -54.26" stroke="hsl(338, 92.1%, 45.4%)" stroke-width="1.5"></path><path d="M1160.84 -48.72L1152.6 109.48" stroke="hsl(338, 92.1%, 45.4%)" stroke-width="1.5"></path><path d="M1160.84 -48.72L1154.84 201.33" stroke="hsl(338, 92.1%, 45.4%)" stroke-width="1.5"></path><path d="M1152.6 109.48L1152.6 109.48" stroke="hsl(338, 92.1%, 45.4%)" stroke-width="1.5"></path><path d="M1152.6 109.48L1154.84 201.33" stroke="hsl(338, 92.1%, 45.4%)" stroke-width="1.5"></path><path d="M1152.6 109.48L1273.34 50.62" stroke="hsl(338, 92.1%, 45.4%)" stroke-width="1.5"></path><path d="M1154.84 201.33L1154.84 201.33" stroke="hsl(338, 92.1%, 45.4%)" stroke-width="1.5"></path><path d="M1093.16 373.02L1093.16 373.02" stroke="hsl(338, 92.1%, 45.4%)" stroke-width="1.5"></path><path d="M1093.16 373.02L1241.6 363.81" stroke="hsl(338, 92.1%, 45.4%)" stroke-width="1.5"></path><path d="M1093.16 373.02L996.45 527.7" stroke="hsl(338, 92.1%, 45.4%)" stroke-width="1.5"></path><path d="M1093.16 373.02L1154.84 201.33" stroke="hsl(338, 92.1%, 45.4%)" stroke-width="1.5"></path><path d="M1093.16 373.02L1267.82 495.06" stroke="hsl(338, 92.1%, 45.4%)" stroke-width="1.5"></path><path d="M1111.42 662.6L1111.42 662.6" stroke="hsl(338, 92.1%, 45.4%)" stroke-width="1.5"></path><path d="M1111.42 662.6L1129.09 490.48" stroke="hsl(338, 92.1%, 45.4%)" stroke-width="1.5"></path><path d="M1111.42 662.6L996.45 527.7" stroke="hsl(338, 92.1%, 45.4%)" stroke-width="1.5"></path><path d="M1312.47 -54.26L1312.47 -54.26" stroke="hsl(338, 92.1%, 45.4%)" stroke-width="1.5"></path><path d="M1312.47 -54.26L1273.34 50.62" stroke="hsl(338, 92.1%, 45.4%)" stroke-width="1.5"></path><path d="M1312.47 -54.26L1450.7 75.36" stroke="hsl(338, 92.1%, 45.4%)" stroke-width="1.5"></path><path d="M1312.47 -54.26L1152.6 109.48" stroke="hsl(338, 92.1%, 45.4%)" stroke-width="1.5"></path><path d="M1273.34 50.62L1273.34 50.62" stroke="hsl(338, 92.1%, 45.4%)" stroke-width="1.5"></path><path d="M1297.6 245.4L1297.6 245.4" stroke="hsl(338, 92.1%, 45.4%)" stroke-width="1.5"></path><path d="M1297.6 245.4L1241.6 363.81" stroke="hsl(338, 92.1%, 45.4%)" stroke-width="1.5"></path><path d="M1297.6 245.4L1427.31 210.74" stroke="hsl(338, 92.1%, 45.4%)" stroke-width="1.5"></path><path d="M1241.6 363.81L1241.6 363.81" stroke="hsl(338, 92.1%, 45.4%)" stroke-width="1.5"></path><path d="M1241.6 363.81L1129.09 490.48" stroke="hsl(338, 92.1%, 45.4%)" stroke-width="1.5"></path><path d="M1450.7 75.36L1450.7 75.36" stroke="hsl(338, 92.1%, 45.4%)" stroke-width="1.5"></path><path d="M1450.7 75.36L1541.6 107.21" stroke="hsl(338, 92.1%, 45.4%)" stroke-width="1.5"></path><path d="M1450.7 75.36L1427.31 210.74" stroke="hsl(338, 92.1%, 45.4%)" stroke-width="1.5"></path><path d="M1450.7 75.36L1273.34 50.62" stroke="hsl(338, 92.1%, 45.4%)" stroke-width="1.5"></path><path d="M1427.31 210.74L1427.31 210.74" stroke="hsl(338, 92.1%, 45.4%)" stroke-width="1.5"></path><path d="M1427.31 210.74L1541.6 107.21" stroke="hsl(338, 92.1%, 45.4%)" stroke-width="1.5"></path><path d="M1427.31 210.74L1432.49 389.91" stroke="hsl(338, 92.1%, 45.4%)" stroke-width="1.5"></path><path d="M1427.31 210.74L1579.41 352.23" stroke="hsl(338, 92.1%, 45.4%)" stroke-width="1.5"></path><path d="M1427.31 210.74L1273.34 50.62" stroke="hsl(338, 92.1%, 45.4%)" stroke-width="1.5"></path><path d="M1432.49 389.91L1432.49 389.91" stroke="hsl(338, 92.1%, 45.4%)" stroke-width="1.5"></path><path d="M1432.49 389.91L1387.66 530.04" stroke="hsl(338, 92.1%, 45.4%)" stroke-width="1.5"></path><path d="M1432.49 389.91L1579.41 352.23" stroke="hsl(338, 92.1%, 45.4%)" stroke-width="1.5"></path><path d="M1432.49 389.91L1544.83 495.82" stroke="hsl(338, 92.1%, 45.4%)" stroke-width="1.5"></path><path d="M1387.66 530.04L1387.66 530.04" stroke="hsl(338, 92.1%, 45.4%)" stroke-width="1.5"></path><path d="M1387.66 530.04L1544.83 495.82" stroke="hsl(338, 92.1%, 45.4%)" stroke-width="1.5"></path><path d="M1387.66 530.04L1241.6 363.81" stroke="hsl(338, 92.1%, 45.4%)" stroke-width="1.5"></path><path d="M1541.6 107.21L1541.6 107.21" stroke="hsl(338, 92.1%, 45.4%)" stroke-width="1.5"></path><path d="M1579.41 352.23L1579.41 352.23" stroke="hsl(338, 92.1%, 45.4%)" stroke-width="1.5"></path><path d="M1579.41 352.23L1544.83 495.82" stroke="hsl(338, 92.1%, 45.4%)" stroke-width="1.5"></path><path d="M1544.83 495.82L1544.83 495.82" stroke="hsl(338, 92.1%, 45.4%)" stroke-width="1.5"></path><circle r="25" cx="-90.39" cy="696.14" fill="url(&quot;#SvgjsRadialGradient1001&quot;)"></circle><circle r="25" cx="698.68" cy="359.07" fill="url(&quot;#SvgjsRadialGradient1001&quot;)"></circle><circle r="25" cx="815.93" cy="390.43" fill="url(&quot;#SvgjsRadialGradient1001&quot;)"></circle><circle r="25" cx="834.53" cy="702.96" fill="url(&quot;#SvgjsRadialGradient1001&quot;)"></circle><circle r="25" cx="1129.09" cy="490.48" fill="url(&quot;#SvgjsRadialGradient1001&quot;)"></circle><circle r="25" cx="1267.82" cy="495.06" fill="url(&quot;#SvgjsRadialGradient1001&quot;)"></circle><circle r="25" cx="1308.42" cy="665.65" fill="url(&quot;#SvgjsRadialGradient1001&quot;)"></circle><circle r="25" cx="1586.59" cy="-89.99" fill="url(&quot;#SvgjsRadialGradient1001&quot;)"></circle><circle r="25" cx="1593.39" cy="675.55" fill="url(&quot;#SvgjsRadialGradient1001&quot;)"></circle><circle r="5" cx="-82.51" cy="545.2" fill="#d583a1"></circle><circle r="5" cx="87.08" cy="510.73" fill="#d583a1"></circle><circle r="5" cx="93.04" cy="646.25" fill="#d583a1"></circle><circle r="5" cx="224.06" cy="531.14" fill="#d583a1"></circle><circle r="5" cx="206.4" cy="704.58" fill="#d583a1"></circle><circle r="5" cx="511.07" cy="491.61" fill="#d583a1"></circle><circle r="5" cx="497.57" cy="691.56" fill="#d583a1"></circle><circle r="5" cx="638.56" cy="508.53" fill="#d583a1"></circle><circle r="5" cx="658.75" cy="699.91" fill="#d583a1"></circle><circle r="5" cx="796.1" cy="503.12" fill="#d583a1"></circle><circle r="5" cx="963.41" cy="382.21" fill="#d583a1"></circle><circle r="5" cx="996.45" cy="527.7" fill="#d583a1"></circle><circle r="5" cx="990.86" cy="690.71" fill="#d583a1"></circle><circle r="5" cx="1160.84" cy="-48.72" fill="#d583a1"></circle><circle r="5" cx="1152.6" cy="109.48" fill="#d583a1"></circle><circle r="5" cx="1154.84" cy="201.33" fill="#d583a1"></circle><circle r="5" cx="1093.16" cy="373.02" fill="#d583a1"></circle><circle r="5" cx="1111.42" cy="662.6" fill="#d583a1"></circle><circle r="5" cx="1312.47" cy="-54.26" fill="#d583a1"></circle><circle r="5" cx="1273.34" cy="50.62" fill="#d583a1"></circle><circle r="5" cx="1297.6" cy="245.4" fill="#d583a1"></circle><circle r="5" cx="1241.6" cy="363.81" fill="#d583a1"></circle><circle r="5" cx="1450.7" cy="75.36" fill="#d583a1"></circle><circle r="5" cx="1427.31" cy="210.74" fill="#d583a1"></circle><circle r="5" cx="1432.49" cy="389.91" fill="#d583a1"></circle><circle r="5" cx="1387.66" cy="530.04" fill="#d583a1"></circle><circle r="5" cx="1541.6" cy="107.21" fill="#d583a1"></circle><circle r="5" cx="1579.41" cy="352.23" fill="#d583a1"></circle><circle r="5" cx="1544.83" cy="495.82" fill="#d583a1"></circle></g><defs><mask id="SvgjsMask1000"><rect width="1440" height="560" fill="#ffffff"></rect></mask><radialGradient id="SvgjsRadialGradient1001"><stop stop-color="#ffffff" offset="0.1"></stop><stop stop-color="rgba(171, 7, 67, 1)" offset="0.2"></stop><stop stop-color="rgba(171, 7, 67, 0)" offset="1"></stop></radialGradient></defs></svg>